<svg xmlns="http://www.w3.org/2000/svg" width="44" height="43" viewBox="0 0 44 43" fill="none">
  <circle cx="22.124" cy="21.5" r="21" fill="#D9D9D9" stroke="#827D7D"/>
  <path d="M18.3213 32C17.799 32 17.3521 31.8141 16.9805 31.4424C16.6083 31.07 16.4222 30.6225 16.4222 30.1C16.4222 29.5775 16.6083 29.13 16.9805 28.7576C17.3521 28.3859 17.799 28.2 18.3213 28.2C18.8435 28.2 19.2905 28.3859 19.6621 28.7576C20.0343 29.13 20.2204 29.5775 20.2204 30.1C20.2204 30.6225 20.0343 31.07 19.6621 31.4424C19.2905 31.8141 18.8435 32 18.3213 32ZM27.8168 32C27.2945 32 26.8476 31.8141 26.476 31.4424C26.1038 31.07 25.9177 30.6225 25.9177 30.1C25.9177 29.5775 26.1038 29.13 26.476 28.7576C26.8476 28.3859 27.2945 28.2 27.8168 28.2C28.339 28.2 28.7862 28.3859 29.1585 28.7576C29.5301 29.13 29.7158 29.5775 29.7158 30.1C29.7158 30.6225 29.5301 31.07 29.1585 31.4424C28.7862 31.8141 28.339 32 27.8168 32ZM22.4043 19.935C22.2303 19.7608 22.1432 19.5392 22.1432 19.27C22.1432 19.0008 22.2303 18.7792 22.4043 18.605L23.2352 17.75H20.2204C19.9514 17.75 19.726 17.6591 19.5443 17.4773C19.362 17.295 19.2708 17.0692 19.2708 16.8C19.2708 16.5308 19.362 16.3051 19.5443 16.1227C19.726 15.9409 19.9514 15.85 20.2204 15.85H23.2352L22.3806 14.995C22.1907 14.805 22.0999 14.5833 22.1081 14.33C22.1157 14.0767 22.2144 13.855 22.4043 13.665C22.5943 13.4908 22.8158 13.3996 23.069 13.3914C23.3222 13.3838 23.5438 13.475 23.7337 13.665L26.2025 16.135C26.2975 16.23 26.3649 16.3329 26.4048 16.4437C26.444 16.5546 26.4637 16.6733 26.4637 16.8C26.4637 16.9267 26.444 17.0454 26.4048 17.1562C26.3649 17.2671 26.2975 17.37 26.2025 17.465L23.7337 19.935C23.5596 20.1092 23.3422 20.2 23.0814 20.2076C22.8199 20.2159 22.5943 20.125 22.4043 19.935ZM18.3213 27.25C17.5933 27.25 17.0435 26.9371 16.6719 26.3114C16.2997 25.6863 16.2956 25.065 16.6596 24.4475L17.9415 22.12L14.5231 14.9H13.5736C13.3045 14.9 13.0792 14.8088 12.8975 14.6264C12.7152 14.4446 12.624 14.2192 12.624 13.95C12.624 13.6808 12.7152 13.455 12.8975 13.2726C13.0792 13.0909 13.3045 13 13.5736 13H15.1166C15.2907 13 15.4568 13.0475 15.6151 13.1425C15.7734 13.2375 15.892 13.3721 15.9712 13.5463L19.7931 21.55H26.4399L29.8345 15.3988C29.9137 15.2404 30.0286 15.1176 30.1792 15.0301C30.3293 14.9434 30.4913 14.9 30.6654 14.9C31.0294 14.9 31.3025 15.0583 31.4849 15.375C31.6665 15.6917 31.6703 16.0083 31.4962 16.325L28.1016 22.4525C27.9275 22.7692 27.6981 23.0146 27.4132 23.1888C27.1283 23.3629 26.8039 23.45 26.4399 23.45H19.3658L18.3213 25.35H28.7663C29.0353 25.35 29.2607 25.4409 29.4424 25.6226C29.6247 25.805 29.7158 26.0308 29.7158 26.3C29.7158 26.5692 29.6247 26.7946 29.4424 26.9764C29.2607 27.1588 29.0353 27.25 28.7663 27.25H18.3213Z" fill="#443B3B"/>
</svg>