<svg xmlns="http://www.w3.org/2000/svg" width="44" height="43" viewBox="0 0 44 43" fill="none">
  <circle cx="22.124" cy="21.5" r="21" fill="#D9D9D9" stroke="#827D7D"/>
  <path d="M26.2032 24.9497H25.345L25.0408 24.6564C26.1054 23.418 26.7464 21.8102 26.7464 20.0612C26.7464 16.1612 23.5851 13 19.6852 13C15.7853 13 12.624 16.1612 12.624 20.0612C12.624 23.9611 15.7853 27.1224 19.6852 27.1224C21.4342 27.1224 23.042 26.4814 24.2804 25.4168L24.5737 25.721V26.5792L30.0054 32L31.624 30.3814L26.2032 24.9497ZM19.6852 24.9497C16.9802 24.9497 14.7967 22.7662 14.7967 20.0612C14.7967 17.3562 16.9802 15.1727 19.6852 15.1727C22.3902 15.1727 24.5737 17.3562 24.5737 20.0612C24.5737 22.7662 22.3902 24.9497 19.6852 24.9497Z" fill="#443B3B"/>
</svg>