 <svg xmlns="http://www.w3.org/2000/svg" width="66" height="65" viewBox="0 0 66 65" fill="none">
  <g clip-path="url(#clip0_2708_4499)">
    <path d="M54.6366 17.4146L33.0026 5.41666L11.3686 17.4146L25.1308 25.025C27.1123 22.9667 29.9082 21.6667 33.0026 21.6667C36.0971 21.6667 38.8929 22.9667 40.8745 25.025L54.6366 17.4146ZM27.5738 32.5C27.5738 29.5208 30.0168 27.0833 33.0026 27.0833C35.9885 27.0833 38.4315 29.5208 38.4315 32.5C38.4315 35.4792 35.9885 37.9167 33.0026 37.9167C30.0168 37.9167 27.5738 35.4792 27.5738 32.5ZM30.2882 58.0667L8.57275 46.0417V22.0458L22.4978 29.7646C22.2535 30.6312 22.1449 31.5521 22.1449 32.5C22.1449 37.5375 25.5922 41.7896 30.2882 42.9812V58.0667ZM35.7171 58.0667V42.9812C40.413 41.7896 43.8603 37.5375 43.8603 32.5C43.8603 31.5521 43.7518 30.6312 43.5075 29.7646L57.4325 22.0458V46.0417L35.7171 58.0667Z" fill="#443B3B"/>
  </g>
  <defs>
    <clipPath id="clip0_2708_4499">
      <rect width="65.1463" height="65" fill="white" transform="translate(0.429443)"/>
    </clipPath>
  </defs>
</svg>